<svg xmlns="http://www.w3.org/2000/svg" xmlns:xlink="http://www.w3.org/1999/xlink" version="1.1" baseProfile="full" width="313" height="416" style="position: absolute; left: 0px; top: 0px; user-select: none;"><rect width="313" height="416" x="0" y="0" fill="none"></rect><g><path d="M-3.75 -18l7.5 0l0 18l-7.5 0Z" transform="translate(15.65 26)" fill="transparent"></path><text dominant-baseline="central" text-anchor="middle" y="-9" transform="translate(15.65 26)" fill="#667085" style="font-size: 12px; font-family: Inter; font-weight: 400;">0</text><path d="M-2.7869 -18l5.5739 0l0 18l-5.5739 0Z" transform="translate(54.775 26)" fill="transparent"></path><text dominant-baseline="central" text-anchor="middle" y="-9" transform="translate(54.775 26)" fill="#667085" style="font-size: 12px; font-family: Inter; font-weight: 400;">1</text><path d="M-3.6307 -18l7.2614 0l0 18l-7.2614 0Z" transform="translate(93.9 26)" fill="transparent"></path><text dominant-baseline="central" text-anchor="middle" y="-9" transform="translate(93.9 26)" fill="#667085" style="font-size: 12px; font-family: Inter; font-weight: 400;">2</text><path d="M-3.8182 -18l7.6364 0l0 18l-7.6364 0Z" transform="translate(133.025 26)" fill="transparent"></path><text dominant-baseline="central" text-anchor="middle" y="-9" transform="translate(133.025 26)" fill="#667085" style="font-size: 12px; font-family: Inter; font-weight: 400;">3</text><path d="M-3.8523 -18l7.7045 0l0 18l-7.7045 0Z" transform="translate(172.15 26)" fill="transparent"></path><text dominant-baseline="central" text-anchor="middle" y="-9" transform="translate(172.15 26)" fill="#667085" style="font-size: 12px; font-family: Inter; font-weight: 400;">4</text><path d="M15.65 51.3957l156.5 0l0 49.8753l-156.5 0Z" fill="rgb(180,180,180)" fill-opacity="0.2"></path><path d="M15.65 104.0623l156.5 0l0 49.8753l-156.5 0Z" fill="rgb(180,180,180)" fill-opacity="0.2"></path><path d="M15.65 156.729l156.5 0l0 49.8753l-156.5 0Z" fill="rgb(180,180,180)" fill-opacity="0.2"></path><path d="M15.65 209.3957l156.5 0l0 49.8753l-156.5 0Z" fill="rgb(180,180,180)" fill-opacity="0.2"></path><path d="M15.65 262.0623l156.5 0l0 49.8753l-156.5 0Z" fill="rgb(180,180,180)" fill-opacity="0.2"></path><path d="M15.65 314.729l156.5 0l0 49.8753l-156.5 0Z" fill="rgb(180,180,180)" fill-opacity="0.2"></path><path d="M15.65 51.3957L164.15 51.3957A8 8 0 0 1 172.15 59.3957L172.15 93.271A8 8 0 0 1 164.15 101.271L15.65 101.271L15.65 51.3957" fill="#53B1FD"></path><path d="M15.65 104.0623L164.15 104.0623A8 8 0 0 1 172.15 112.0623L172.15 145.9377A8 8 0 0 1 164.15 153.9377L15.65 153.9377L15.65 104.0623" fill="#22CCEE"></path><path d="M15.65 156.729L164.15 156.729A8 8 0 0 1 172.15 164.729L172.15 198.6043A8 8 0 0 1 164.15 206.6043L15.65 206.6043L15.65 156.729" fill="#8098F9"></path><path d="M15.65 209.3957L125.025 209.3957A8 8 0 0 1 133.025 217.3957L133.025 251.271A8 8 0 0 1 125.025 259.271L15.65 259.271L15.65 209.3957" fill="#A48AFB"></path><path d="M15.65 262.0623L85.9 262.0623A8 8 0 0 1 93.9 270.0623L93.9 303.9377A8 8 0 0 1 85.9 311.9377L15.65 311.9377L15.65 262.0623" fill="#528BFF"></path><path d="M15.65 314.729L85.9 314.729A8 8 0 0 1 93.9 322.729L93.9 356.6043A8 8 0 0 1 85.9 364.6043L15.65 364.6043L15.65 314.729" fill="#67E3F9"></path><path d="M0 -18l72.3359 0l0 36l-72.3359 0Z" transform="translate(20.65 76.3333)" fill="transparent"></path><text dominant-baseline="central" text-anchor="start" xml:space="preserve" x="8" y="-9" transform="translate(20.65 76.3333)" fill="#101828" style="font-size: 12px; font-family: Inter; font-weight: 500;">Cold Leads</text><text dominant-baseline="central" text-anchor="start" x="8" y="9" transform="translate(20.65 76.3333)" fill="#101828" style="font-size: 12px; font-family: Inter; font-weight: 500;">C$0</text><path d="M0 -18l37.8418 0l0 36l-37.8418 0Z" transform="translate(20.65 129)" fill="transparent"></path><text dominant-baseline="central" text-anchor="start" xml:space="preserve" x="8" y="-9" transform="translate(20.65 129)" fill="#101828" style="font-size: 12px; font-family: Inter; font-weight: 500;">Call 1</text><text dominant-baseline="central" text-anchor="start" x="8" y="9" transform="translate(20.65 129)" fill="#101828" style="font-size: 12px; font-family: Inter; font-weight: 500;">C$0</text><path d="M0 -18l106.6661 0l0 36l-106.6661 0Z" transform="translate(20.65 181.6667)" fill="transparent"></path><text dominant-baseline="central" text-anchor="start" xml:space="preserve" x="8" y="-9" transform="translate(20.65 181.6667)" fill="#101828" style="font-size: 12px; font-family: Inter; font-weight: 500;">No Requirements</text><text dominant-baseline="central" text-anchor="start" x="8" y="9" transform="translate(20.65 181.6667)" fill="#101828" style="font-size: 12px; font-family: Inter; font-weight: 500;">C$0</text><path d="M0 -18l71.3926 0l0 36l-71.3926 0Z" transform="translate(20.65 234.3333)" fill="transparent"></path><text dominant-baseline="central" text-anchor="start" xml:space="preserve" x="8" y="-9" transform="translate(20.65 234.3333)" fill="#101828" style="font-size: 12px; font-family: Inter; font-weight: 500;">Send Email</text><text dominant-baseline="central" text-anchor="start" x="8" y="9" transform="translate(20.65 234.3333)" fill="#101828" style="font-size: 12px; font-family: Inter; font-weight: 500;">C$0</text><path d="M0 -18l73.8512 0l0 36l-73.8512 0Z" transform="translate(20.65 287)" fill="transparent"></path><text dominant-baseline="central" text-anchor="start" xml:space="preserve" x="8" y="-9" transform="translate(20.65 287)" fill="#101828" style="font-size: 12px; font-family: Inter; font-weight: 500;">Has Project</text><text dominant-baseline="central" text-anchor="start" x="8" y="9" transform="translate(20.65 287)" fill="#101828" style="font-size: 12px; font-family: Inter; font-weight: 500;">C$0</text><path d="M0 -18l33.8968 0l0 36l-33.8968 0Z" transform="translate(20.65 339.6667)" fill="transparent"></path><text dominant-baseline="central" text-anchor="start" x="8" y="-9" transform="translate(20.65 339.6667)" fill="#101828" style="font-size: 12px; font-family: Inter; font-weight: 500;">Won</text><text dominant-baseline="central" text-anchor="start" x="8" y="9" transform="translate(20.65 339.6667)" fill="#101828" style="font-size: 12px; font-family: Inter; font-weight: 500;">C$0</text><text dominant-baseline="central" text-anchor="middle" xml:space="preserve" y="-6" transform="translate(266.6539 32)" fill="#101828" style="font: 500 12px Inter;">Next Step </text><text dominant-baseline="central" text-anchor="middle" y="6" transform="translate(266.6539 32)" fill="#101828" style="font: 500 12px Inter;">Conversion</text><path d="M0 0L33 7L66 0L66 49.8753L33 56.8753L0 49.8753Z" transform="translate(231.35 51)" fill="#EAECF0"></path><path d="M0 0L33 7L66 0L66 49.8753L33 56.8753L0 49.8753Z" transform="translate(231.35 103.5187)" fill="#EAECF0"></path><path d="M0 0L33 7L66 0L66 49.8753L33 56.8753L0 49.8753Z" transform="translate(231.35 156.0374)" fill="#EAECF0"></path><path d="M0 0L33 7L66 0L66 49.8753L33 56.8753L0 49.8753Z" transform="translate(231.35 208.5561)" fill="#EAECF0"></path><path d="M0 0L33 7L66 0L66 49.8753L33 56.8753L0 49.8753Z" transform="translate(231.35 261.0748)" fill="#EAECF0"></path><path d="M0 0L33 7L66 0L66 49.8753L33 56.8753L0 49.8753Z" transform="translate(231.35 313.5935)" fill="#EAECF0"></path><text dominant-baseline="central" text-anchor="middle" transform="translate(201.75 26)" fill="#101828" style="font: 500 12px Inter;">Cumulative</text><path d="M0 0L33 7L66 0L66 49.8753L33 56.8753L0 49.8753Z" transform="translate(168.75 52)" fill="#EAECF0"></path><path d="M0 0L33 7L66 0L66 49.8753L33 56.8753L0 49.8753Z" transform="translate(168.75 104.5187)" fill="#EAECF0"></path><path d="M0 0L33 7L66 0L66 49.8753L33 56.8753L0 49.8753Z" transform="translate(168.75 157.0374)" fill="#EAECF0"></path><path d="M0 0L33 7L66 0L66 49.8753L33 56.8753L0 49.8753Z" transform="translate(168.75 209.5561)" fill="#EAECF0"></path><path d="M0 0L33 7L66 0L66 49.8753L33 56.8753L0 49.8753Z" transform="translate(168.75 262.0748)" fill="#EAECF0"></path><path d="M0 0L33 7L66 0L66 49.8753L33 56.8753L0 49.8753Z" transform="translate(168.75 314.5935)" fill="#EAECF0"></path><text dominant-baseline="central" text-anchor="middle" transform="translate(264.35 79.4377)" fill="#101828" style="font: 500 12px Inter;">100.00%</text><text dominant-baseline="central" text-anchor="middle" transform="translate(264.35 131.9563)" fill="#101828" style="font: 500 12px Inter;">100.00%</text><text dominant-baseline="central" text-anchor="middle" transform="translate(264.35 184.475)" fill="#101828" style="font: 500 12px Inter;">100.00%</text><text dominant-baseline="central" text-anchor="middle" transform="translate(264.35 236.9937)" fill="#101828" style="font: 500 12px Inter;">75.00%</text><text dominant-baseline="central" text-anchor="middle" transform="translate(264.35 289.5124)" fill="#101828" style="font: 500 12px Inter;">66.67%</text><text dominant-baseline="central" text-anchor="middle" transform="translate(264.35 342.0311)" fill="#101828" style="font: 500 12px Inter;">100.00%</text><text dominant-baseline="central" text-anchor="middle" transform="translate(201.75 80.4377)" fill="#101828" style="font: 500 12px Inter;">100.00%</text><text dominant-baseline="central" text-anchor="middle" transform="translate(201.75 132.9563)" fill="#101828" style="font: 500 12px Inter;">100.00%</text><text dominant-baseline="central" text-anchor="middle" transform="translate(201.75 185.475)" fill="#101828" style="font: 500 12px Inter;">100.00%</text><text dominant-baseline="central" text-anchor="middle" transform="translate(201.75 237.9937)" fill="#101828" style="font: 500 12px Inter;">75.00%</text><text dominant-baseline="central" text-anchor="middle" transform="translate(201.75 290.5124)" fill="#101828" style="font: 500 12px Inter;">50.00%</text><text dominant-baseline="central" text-anchor="middle" transform="translate(201.75 343.0311)" fill="#101828" style="font: 500 12px Inter;">50.00%</text></g></svg>